<svg width="241" height="35" viewBox="0 0 241 35" fill="none" xmlns="http://www.w3.org/2000/svg">
<path d="M2.43864e-05 15.9055C-0.00540603 12.7659 0.89622 9.69546 2.59044 7.08386C4.28466 4.47226 6.69509 2.43728 9.51579 1.23718C12.3365 0.0370833 15.4403 -0.274003 18.4332 0.343408C21.4261 0.960819 24.1731 2.47888 26.3257 4.70493C28.4783 6.93097 29.9393 9.76462 30.5233 12.8462C31.1073 15.9278 30.788 19.1183 29.6058 22.0129C28.4237 24.9075 26.432 27.3756 23.8837 29.1039C21.3353 30.8322 18.3452 31.7428 15.2927 31.7201C11.2315 31.69 7.34613 30.0114 4.48213 27.0497C1.61813 24.0879 0.00724955 20.0827 2.43864e-05 15.9055ZM3.48955 15.9055C3.4868 18.3303 4.18357 20.7015 5.49168 22.7189C6.79979 24.7363 8.66043 26.3092 10.8381 27.2385C13.0157 28.1677 15.4125 28.4116 17.7249 27.9392C20.0374 27.4669 22.1616 26.2995 23.8287 24.5848C25.4958 22.8702 26.6308 20.6854 27.0901 18.3069C27.5494 15.9285 27.3122 13.4634 26.4087 11.2237C25.5052 8.98393 23.976 7.07023 22.0145 5.72481C20.0531 4.37939 17.7477 3.66273 15.39 3.66556C13.8224 3.65992 12.2691 3.97214 10.8189 4.58438C9.36868 5.19662 8.05001 6.09686 6.93831 7.23362C5.82661 8.37039 4.94365 9.72139 4.33996 11.2094C3.73626 12.6974 3.42366 14.2931 3.42002 15.9055H3.48955Z" fill="#0F89F9"/>
<path d="M27.9774 14.7884L18.0127 8.03613L11.9899 11.7392L5.27215 7.79722L6.31456 5.64706L11.9899 8.8723L18.0127 5.16925L29.0198 12.6382L27.9774 14.7884ZM26.935 21.2954L18.0127 15.4422L12.2215 19.1453L2.70477 13.0532L3.74718 10.903L12.2215 16.2784L18.0127 12.5753L27.9774 19.1453L26.935 21.2954ZM23.9197 26.6708L18.0127 22.9678L12.2215 26.6708L2.19169 20.0001L3.23409 17.801L12.2215 23.8039L18.0127 20.1009L24.9621 24.5207L23.9197 26.6708Z" fill="#0F89F9"/>
<path d="M53.946 9.85799H45.375V15.5526H53.6555V18.7486H45.375V27H42.0338V6.66202H53.946V9.85799ZM71.1117 20.2304V23.3392H68.7873V27H65.417V23.3392H55.4224V20.2304L62.4244 6.66202H66.0562L59.0541 20.2304H65.417V14.9425H68.7873V20.2304H71.1117ZM88.8951 6.66202C91.6843 6.66202 93.999 7.64018 95.8391 9.5965C97.6986 11.5528 98.6283 13.9643 98.6283 16.831C98.6283 19.6783 97.6986 22.0898 95.8391 24.0655C93.999 26.0218 91.6843 27 88.8951 27H80.9052V6.66202H88.8951ZM88.8951 23.804C90.8127 23.804 92.372 23.1455 93.5729 21.8283C94.7931 20.5112 95.4033 18.8454 95.4033 16.831C95.4033 14.7972 94.7931 13.1314 93.5729 11.8337C92.372 10.5166 90.8127 9.85799 88.8951 9.85799H84.2464V23.804H88.8951ZM112.977 12.4729H116.114V27H112.977V24.9081C111.795 26.5545 110.1 27.3777 107.892 27.3777C105.897 27.3777 104.192 26.6417 102.779 25.1696C101.365 23.6781 100.658 21.8671 100.658 19.7364C100.658 17.5864 101.365 15.7754 102.779 14.3033C104.192 12.8312 105.897 12.0952 107.892 12.0952C110.1 12.0952 111.795 12.9087 112.977 14.5357V12.4729ZM105.103 23.0777C105.974 23.9493 107.069 24.3851 108.386 24.3851C109.703 24.3851 110.797 23.9493 111.669 23.0777C112.541 22.1867 112.977 21.0729 112.977 19.7364C112.977 18.3999 112.541 17.2959 111.669 16.4243C110.797 15.5333 109.703 15.0878 108.386 15.0878C107.069 15.0878 105.974 15.5333 105.103 16.4243C104.231 17.2959 103.795 18.3999 103.795 19.7364C103.795 21.0729 104.231 22.1867 105.103 23.0777ZM127.878 15.4945H124.275V22.4675C124.275 23.068 124.411 23.5038 124.682 23.775C124.953 24.0268 125.35 24.1721 125.873 24.2108C126.416 24.2302 127.084 24.2205 127.878 24.1817V27C125.476 27.2905 123.752 27.0872 122.706 26.3899C121.66 25.6732 121.137 24.3657 121.137 22.4675V15.4945H118.464V12.4729H121.137V9.33501L124.275 8.40528V12.4729H127.878V15.4945ZM141.634 12.4729H144.771V27H141.634V24.9081C140.452 26.5545 138.757 27.3777 136.549 27.3777C134.554 27.3777 132.85 26.6417 131.436 25.1696C130.022 23.6781 129.315 21.8671 129.315 19.7364C129.315 17.5864 130.022 15.7754 131.436 14.3033C132.85 12.8312 134.554 12.0952 136.549 12.0952C138.757 12.0952 140.452 12.9087 141.634 14.5357V12.4729ZM133.76 23.0777C134.632 23.9493 135.726 24.3851 137.043 24.3851C138.36 24.3851 139.455 23.9493 140.326 23.0777C141.198 22.1867 141.634 21.0729 141.634 19.7364C141.634 18.3999 141.198 17.2959 140.326 16.4243C139.455 15.5333 138.36 15.0878 137.043 15.0878C135.726 15.0878 134.632 15.5333 133.76 16.4243C132.888 17.2959 132.452 18.3999 132.452 19.7364C132.452 21.0729 132.888 22.1867 133.76 23.0777ZM162.665 27.3777C160.709 27.3777 159.043 26.9322 157.668 26.0412C156.312 25.1502 155.363 23.9299 154.821 22.3804L157.697 20.6952C158.511 22.9808 160.196 24.1236 162.753 24.1236C164.012 24.1236 164.951 23.8815 165.571 23.3973C166.21 22.8937 166.53 22.2448 166.53 21.4506C166.53 20.6177 166.191 19.9882 165.513 19.5621C164.835 19.1166 163.634 18.6324 161.91 18.1094C160.942 17.8189 160.157 17.5477 159.557 17.2959C158.956 17.0441 158.317 16.6954 157.639 16.2499C156.981 15.7851 156.487 15.2137 156.157 14.5357C155.828 13.8578 155.663 13.0636 155.663 12.1533C155.663 10.3519 156.303 8.92825 157.581 7.8823C158.859 6.81698 160.399 6.28432 162.201 6.28432C163.828 6.28432 165.251 6.68139 166.472 7.47554C167.692 8.26969 168.631 9.36407 169.29 10.7587L166.472 12.3857C165.619 10.4875 164.196 9.5384 162.201 9.5384C161.232 9.5384 160.457 9.77083 159.876 10.2357C159.295 10.6812 159.005 11.2913 159.005 12.0661C159.005 12.8215 159.295 13.422 159.876 13.8675C160.477 14.2936 161.552 14.7488 163.101 15.233C163.876 15.4848 164.438 15.6785 164.786 15.8141C165.154 15.9303 165.658 16.124 166.297 16.3952C166.956 16.6664 167.45 16.9375 167.779 17.2087C168.108 17.4799 168.457 17.8189 168.825 18.2256C169.212 18.6324 169.484 19.0972 169.638 19.6202C169.793 20.1432 169.871 20.734 169.871 21.3925C169.871 23.2326 169.203 24.695 167.866 25.7797C166.549 26.845 164.815 27.3777 162.665 27.3777ZM180.227 15.4945H176.624V22.4675C176.624 23.068 176.76 23.5038 177.031 23.775C177.302 24.0268 177.699 24.1721 178.222 24.2108C178.764 24.2302 179.433 24.2205 180.227 24.1817V27C177.825 27.2905 176.101 27.0872 175.055 26.3899C174.009 25.6732 173.486 24.3657 173.486 22.4675V15.4945H170.813V12.4729H173.486V9.33501L176.624 8.40528V12.4729H180.227V15.4945ZM193.006 12.4729H196.144V27H193.006V25.1405C192.057 26.632 190.556 27.3777 188.502 27.3777C186.837 27.3777 185.49 26.845 184.464 25.7797C183.437 24.7144 182.924 23.252 182.924 21.3925V12.4729H186.062V21.0729C186.062 22.1576 186.352 22.9905 186.933 23.5716C187.515 24.1527 188.309 24.4432 189.316 24.4432C190.42 24.4432 191.311 24.1043 191.989 23.4263C192.667 22.729 193.006 21.6734 193.006 20.2594V12.4729ZM211.318 6.66202H214.456V27H211.318V24.9081C210.137 26.5545 208.442 27.3777 206.234 27.3777C204.239 27.3777 202.534 26.6417 201.12 25.1696C199.706 23.6781 198.999 21.8671 198.999 19.7364C198.999 17.5864 199.706 15.7754 201.12 14.3033C202.534 12.8312 204.239 12.0952 206.234 12.0952C208.442 12.0952 210.137 12.9087 211.318 14.5357V6.66202ZM203.445 23.0777C204.316 23.9493 205.411 24.3851 206.728 24.3851C208.045 24.3851 209.139 23.9493 210.011 23.0777C210.883 22.1867 211.318 21.0729 211.318 19.7364C211.318 18.3999 210.883 17.2959 210.011 16.4243C209.139 15.5333 208.045 15.0878 206.728 15.0878C205.411 15.0878 204.316 15.5333 203.445 16.4243C202.573 17.2959 202.137 18.3999 202.137 19.7364C202.137 21.0729 202.573 22.1867 203.445 23.0777ZM221.077 9.71272C220.69 10.1001 220.225 10.2938 219.683 10.2938C219.14 10.2938 218.666 10.1001 218.259 9.71272C217.872 9.30596 217.678 8.83141 217.678 8.28906C217.678 7.74672 217.872 7.28185 218.259 6.89446C218.646 6.4877 219.121 6.28432 219.683 6.28432C220.244 6.28432 220.719 6.4877 221.106 6.89446C221.494 7.28185 221.687 7.74672 221.687 8.28906C221.687 8.83141 221.484 9.30596 221.077 9.71272ZM218.114 27V12.4729H221.252V27H218.114ZM231.752 27.3777C229.621 27.3777 227.81 26.6417 226.319 25.1696C224.827 23.6975 224.081 21.8865 224.081 19.7364C224.081 17.5864 224.827 15.7754 226.319 14.3033C227.81 12.8312 229.621 12.0952 231.752 12.0952C233.902 12.0952 235.713 12.8312 237.185 14.3033C238.676 15.7754 239.422 17.5864 239.422 19.7364C239.422 21.8865 238.676 23.6975 237.185 25.1696C235.713 26.6417 233.902 27.3777 231.752 27.3777ZM228.527 23.0196C229.398 23.8912 230.473 24.327 231.752 24.327C233.03 24.327 234.105 23.8912 234.977 23.0196C235.848 22.1479 236.284 21.0536 236.284 19.7364C236.284 18.4193 235.848 17.3249 234.977 16.4533C234.105 15.5817 233.03 15.1459 231.752 15.1459C230.473 15.1459 229.398 15.5817 228.527 16.4533C227.655 17.3249 227.219 18.4193 227.219 19.7364C227.219 21.0536 227.655 22.1479 228.527 23.0196Z" fill="#0F89F9"/>
</svg>
